Coordinates
version=1
nRows=25
nColumns=33
inDegrees=yes

Units are S.I. units (second, meters, Newtons, ...)
Angles are in degrees.

endheader
time	ground_thorax_rot_x	ground_thorax_rot_y	ground_thorax_rot_z	ground_thorax_tx	ground_thorax_ty	ground_thorax_tz	clav_prot_r	clav_elev_r	scapula_abduction_r	scapula_elevation_r	scapula_upward_rot_r	scapula_winging_r	shoulder_elv_r	plane_of_elev_r	axial_rot_r	elbow_flexion_r	pro_sup_r	wrist_flex_r	wrist_dev_r	clav_prot_l	clav_elev_l	scapula_abduction_l	scapula_elevation_l	scapula_upward_rot_l	scapula_winging_l	shoulder_elv_l	plane_of_elev_l	axial_rot_l	elbow_flexion_l	pro_sup_l	wrist_flex_l	wrist_dev_l	
4.1200	27.304749	33.028493	45.801705	-98.467828	782.665246	9.484206	13.662124	38.667883	35.424956	45.000000	-38.799462	-1886.114567	-2097.333314	31.883791	56.708115	1450.714137	26.921107	18.353993	10.589110	7.502251	-45.000000	-36.326700	45.000000	-45.000000	1535.317466	-3698.897223	141.964203	140.022234	-710.281661	22.101733	8.382199	-19.795445	
4.1300	27.632722	32.809357	45.188167	-100.730206	783.669271	9.402814	13.656960	38.754059	35.563113	45.000000	-38.485030	-1886.265273	-2097.228209	31.924331	56.594788	1450.838034	26.912413	18.427144	10.502271	7.496636	-45.000000	-36.379738	45.000000	-45.000000	1535.304593	-3698.666678	141.759181	140.687486	-710.206916	21.785313	8.321528	-19.828337	
4.1400	27.969033	32.575826	44.559766	-103.044461	784.720574	9.315378	13.646007	38.835476	35.707861	45.000000	-38.154647	-1886.420507	-2097.120399	31.968198	56.468738	1450.953601	26.902270	18.500312	10.414674	7.492923	-45.000000	-36.427511	45.000000	-44.999999	1535.297685	-3698.431244	141.543960	141.348375	-710.138822	21.473542	8.251853	-19.861038	
4.1500	28.296312	32.340169	43.938912	-105.406123	785.816721	9.221143	13.636569	38.911055	35.851748	45.000000	-37.839399	-1886.574419	-2097.005003	32.012414	56.310785	1451.070650	26.890943	18.574012	10.322402	7.491298	-45.000000	-36.478813	45.000000	-44.999999	1535.299107	-3698.189438	141.334282	141.986084	-710.065588	21.172156	8.179444	-19.897038	
4.1600	28.623505	32.095446	43.315889	-107.811191	786.954651	9.119160	13.623472	38.982695	35.999443	45.000000	-37.518850	-1886.732351	-2096.885670	32.058477	56.131009	1451.184700	26.885473	18.648259	10.226951	7.491112	-45.000000	-36.528256	45.000000	-44.999998	1535.308463	-3697.940843	141.121832	142.608948	-709.992998	20.882193	8.100759	-19.934689	
4.1700	28.937215	31.854080	42.710914	-110.255438	788.130145	9.008407	13.613529	39.049402	36.143901	45.000000	-37.224607	-1886.886268	-2096.756804	32.104025	55.912743	1451.297594	26.888229	18.721883	10.125593	7.492242	-45.000000	-36.582757	45.000000	-44.999997	1535.328306	-3697.688614	140.921815	143.198728	-709.912487	20.605186	8.022772	-19.976227	
4.1800	29.247415	31.609871	42.112526	-112.735800	789.338643	8.888342	13.601913	39.115128	36.285855	45.000000	-36.937623	-1887.038516	-2096.622570	32.149585	55.672144	1451.405442	26.906339	18.794677	10.019951	7.492850	-45.000000	-36.634305	45.000000	-44.999994	1535.354426	-3697.434336	140.729650	143.768417	-709.830263	20.337627	7.942693	-20.019426	
4.1900	29.545243	31.370669	41.530292	-115.250317	790.575568	8.759416	13.593928	39.179950	36.420513	45.000000	-36.676634	-1887.185837	-2096.478830	32.193280	55.405476	1451.515196	26.941248	18.866397	9.906653	7.491433	-45.000000	-36.692158	45.000000	-44.999989	1535.385319	-3697.179019	140.556773	144.310354	-709.739468	20.077125	7.867727	-20.066047	
4.2000	29.841893	31.126228	40.949190	-117.799046	791.837340	8.623635	13.583740	39.241578	36.553426	45.000000	-36.417478	-1887.335234	-2096.332049	32.237847	55.132173	1451.621889	26.997232	18.936682	9.788218	7.488719	-45.000000	-36.748487	45.000000	-44.999980	1535.422068	-3696.922692	140.389030	144.834082	-709.651402	19.819690	7.792892	-20.112594	
4.2100	30.138197	30.873952	40.364790	-120.383018	793.121046	8.484346	13.571504	39.299863	36.685241	45.000000	-36.155409	-1887.488177	-2096.184006	32.280997	54.857038	1451.727988	27.071861	19.005953	9.665738	7.484218	-45.000000	-36.803823	45.000000	-44.999964	1535.465792	-3696.664780	140.224176	145.326174	-709.565538	19.564958	7.715721	-20.158783	
4.2200	30.441367	30.606751	39.765392	-123.003732	794.424458	8.345924	13.553048	39.353934	36.818215	45.000000	-35.873175	-1887.648539	-2096.041686	32.322623	54.599856	1451.831100	27.162655	19.073855	9.541304	7.479147	-45.000000	-36.849897	45.000000	-44.999936	1535.516777	-3696.406089	140.051663	145.792328	-709.489319	19.311895	7.631551	-20.202216	
4.2300	30.746591	30.327090	39.154482	-125.662304	795.745190	8.212615	13.530910	39.405867	36.951267	45.000000	-35.576178	-1887.815748	-2095.902099	32.360542	54.367988	1451.937922	27.262363	19.140193	9.412452	7.472976	-45.000000	-36.893828	45.000000	-44.999886	1535.573375	-3696.144957	139.877130	146.230702	-709.416511	19.060168	7.542971	-20.244216	
4.2400	31.046794	30.039923	38.545625	-128.358606	797.080114	8.087730	13.506082	39.449252	37.083874	45.000000	-35.287241	-1887.983714	-2095.761758	32.398738	54.166878	1452.043667	27.365718	19.203258	9.281111	7.471041	-45.000000	-36.931661	45.000000	-44.999795	1535.640735	-3695.884633	139.702345	146.651236	-709.350514	18.807759	7.450027	-20.283072	
4.2500	31.337109	29.749617	37.946497	-131.090766	798.424706	7.972824	13.480826	39.487567	37.212871	45.000000	-35.018244	-1888.146888	-2095.614315	32.436610	53.995011	1452.152183	27.466037	19.263249	9.147493	7.473521	-45.000000	-36.968660	45.000000	-44.999633	1535.716295	-3695.624556	139.537632	147.054925	-709.284975	18.551695	7.353887	-20.319434	
4.2600	31.607530	29.463054	37.372621	-133.855389	799.773755	7.868123	13.457318	39.501554	37.342543	45.000000	-34.806469	-1888.302399	-2095.456552	32.481136	53.844282	1452.258497	27.558850	19.318517	9.012919	7.485742	-45.000000	-37.013257	45.000000	-44.999342	1535.810204	-3695.372402	139.383353	147.449174	-709.221842	18.286744	7.259808	-20.352300	
4.2700	31.858788	29.179760	36.823144	-136.648268	801.122179	7.773070	13.435234	39.492619	37.471014	45.000000	-34.649759	-1888.449769	-2095.289064	32.533878	53.707001	1452.360820	27.639734	19.368621	8.877300	7.506757	-45.000000	-37.066252	45.000000	-44.998825	1535.918987	-3695.128810	139.241949	147.829945	-709.164908	18.007481	7.167890	-20.380361	
4.2800	32.094737	28.897734	36.290649	-139.465157	802.465980	7.687172	13.413570	39.465708	37.598138	45.000000	-34.537112	-1888.589966	-2095.114068	32.592288	53.581963	1452.456068	27.704887	19.413588	8.742532	7.534714	-45.000000	-37.123221	45.000000	-44.997887	1536.041016	-3694.895272	139.109536	148.189255	-709.113870	17.709256	7.077065	-20.403183	
4.2900	32.328202	28.607304	35.755600	-142.302586	803.802927	7.610461	13.388822	39.440113	37.719961	45.000000	-34.424118	-1888.728499	-2094.939402	32.650211	53.476247	1452.547106	27.748046	19.454446	8.607528	7.563570	-45.000000	-37.174515	45.000000	-44.996237	1536.164519	-3694.666515	138.983951	148.521303	-709.072686	17.388735	6.983269	-20.420080	
4.3000	32.559786	28.306615	35.214615	-145.157594	805.131966	7.543409	13.360223	39.415267	37.838363	45.000000	-34.303190	-1888.868233	-2094.770156	32.705442	53.396841	1452.632440	27.761739	19.490197	8.471882	7.592484	-45.000000	-37.218698	45.000000	-44.993200	1536.290675	-3694.444644	138.860807	148.824059	-709.044005	17.042869	6.888610	-20.430685	
4.3100	32.786011	27.999137	34.674402	-148.027576	806.452416	7.486391	13.329650	39.399262	37.946561	45.000000	-34.175153	-1889.007851	-2094.603992	32.758051	53.344597	1452.716662	27.735437	19.520044	8.331761	7.620464	-45.000000	-37.257150	45.000000	-44.987987	1536.413308	-3694.225552	138.750571	149.098783	-709.026863	16.667220	6.797787	-20.436112	
4.3200	33.004515	27.688108	34.137816	-150.908756	807.761824	7.438693	13.298390	39.396576	38.041878	45.000000	-34.041095	-1889.143483	-2094.437780	32.804308	53.318707	1452.801192	27.660517	19.544888	8.191505	7.647074	-45.000000	-37.287562	45.000000	-44.978012	1536.533138	-3694.008521	138.655662	149.335046	-709.014566	16.259674	6.710874	-20.437451	
4.3300	33.214132	27.375575	33.609275	-153.796359	809.056251	7.398525	13.267743	39.403232	38.123445	45.000000	-33.911718	-1889.273689	-2094.268493	32.847383	53.312892	1452.886142	27.529112	19.565240	8.053465	7.673615	-45.000000	-37.314979	45.000000	-44.961922	1536.651413	-3693.794547	138.579501	149.533669	-709.005147	15.818024	6.631462	-20.435768	
4.3400	33.418580	27.059160	33.083136	-156.683965	810.329756	7.362981	13.238414	39.418536	38.192420	45.000000	-33.782332	-1889.394158	-2094.096143	32.883751	53.314999	1452.965768	27.338549	19.582444	7.925734	7.698685	-45.000000	-37.341040	45.000000	-44.928138	1536.768744	-3693.589694	138.523113	149.679421	-708.996372	15.346617	6.561370	-20.432162	
4.3500	33.618129	26.740177	32.560720	-159.564886	811.576647	7.329186	13.210122	39.435426	38.252589	45.000000	-33.663235	-1889.506092	-2093.921968	32.917749	53.311552	1453.034701	27.086270	19.596700	7.809663	7.724177	-45.000000	-37.368820	45.000000	-44.881470	1536.887257	-3693.395283	138.484234	149.781694	-708.988287	14.846617	6.502334	-20.427631	
4.3600	33.822574	26.407845	32.017429	-162.432803	812.792248	7.294872	13.181371	39.480488	38.299998	45.000000	-33.504823	-1889.606241	-2093.756082	32.932801	53.285608	1453.088751	26.777503	19.609553	7.707309	7.739321	-45.000000	-37.397343	45.000000	-44.759218	1536.992984	-3693.220687	138.482194	149.826515	-708.981820	14.334460	6.462978	-20.426122	
